<?xml version="1.0" encoding="UTF-8"?>
<svg width="1135px" height="483px" viewBox="0 0 1135 483" version="1.1" xmlns="http://www.w3.org/2000/svg" xmlns:xlink="http://www.w3.org/1999/xlink">
    <title>REI</title>
    <g id="Page-1" stroke="none" stroke-width="1" fill="none" fill-rule="evenodd">
        <g id="Group" transform="translate(0.000000, 0.500000)" fill="#000000" fill-rule="nonzero">
            <path d="M174.397667,439.914343 C194.192648,439.914343 211.778367,436.560135 227.154825,429.851721 C242.531283,423.143306 255.521739,413.301356 266.126193,400.32587 C276.730647,387.350383 284.860728,371.373764 290.516437,352.396012 C296.172146,333.418261 299,311.660047 299,287.121373 L299,196.822581 C299,172.283907 296.172146,150.525694 290.516437,131.547942 C284.860728,112.57019 276.686462,96.5494366 265.993637,83.4856819 C255.300813,70.4219271 242.221987,60.4917081 226.757158,53.6950248 C211.292329,46.8983416 193.662425,43.5 173.867444,43.5 C154.249205,43.5 136.707671,46.8983416 121.242842,53.6950248 C105.778013,60.4917081 92.699187,70.4219271 82.0063627,83.4856819 C71.3135384,96.5494366 63.1392718,112.57019 57.4835631,131.547942 C51.8278544,150.525694 49,172.283907 49,196.822581 L49,287.121373 C49,311.660047 51.8720396,333.418261 57.6161188,352.396012 C63.3601979,371.373764 71.6228349,387.350383 82.4040297,400.32587 C93.1852245,413.301356 106.308236,423.143306 121.773065,429.851721 C137.237893,436.560135 154.779427,439.914343 174.397667,439.914343 Z M98.8007968,277.563745 L98.8007968,186.369016 C98.8007968,153.063116 104.945823,127.731246 117.235875,110.373409 C129.525927,93.015572 148.579928,84.3366534 174.397879,84.3366534 C197.209631,84.3366534 214.672115,90.9890225 226.785331,104.293761 C238.898548,117.598499 246.369839,137.026941 249.199203,162.579087 C215.777335,188.131233 190.710934,207.295343 174,220.071416 C157.289066,232.847489 132.222665,252.011599 98.8007968,277.563745 Z M174.769453,400.073705 C152.637479,400.073705 127.45719,387.148278 122.980634,382.647343 C118.504078,378.146408 106.931517,368.469358 102.784861,343.868718 L250.195219,170.99004 L250.195219,297.328923 C250.195219,330.517959 244.131058,355.939349 232.002737,373.593091 C219.874415,391.246834 200.796654,400.073705 174.769453,400.073705 Z" id="0-copy-2"></path>
            <path d="M465.832031,383.5 L465.832031,264.554688 L536.144531,264.554688 L598.449219,383.5 L622.863281,383.5 L622.863281,380.960938 L558.019531,259.085938 C566.222656,255.700521 573.742188,251.598958 580.578125,246.78125 C587.414062,241.963542 593.30599,236.397135 598.253906,230.082031 C603.201823,223.766927 607.075521,216.703125 609.875,208.890625 C612.674479,201.078125 614.074219,192.419271 614.074219,182.914062 C614.074219,169.632812 611.697917,157.848958 606.945312,147.5625 C602.192708,137.276042 595.682292,128.584635 587.414062,121.488281 C579.145833,114.391927 569.477865,108.955729 558.410156,105.179688 C547.342448,101.403646 535.558594,99.3854167 523.058594,99.125 L523.058594,99.125 L442.785156,99.125 L442.785156,383.5 L465.832031,383.5 Z M527.746094,244.828125 L465.832031,244.828125 L465.832031,119.046875 L522.863281,119.046875 C532.36849,119.307292 541.255208,120.869792 549.523438,123.734375 C557.791667,126.598958 564.953125,130.733073 571.007812,136.136719 C577.0625,141.540365 581.847656,148.148438 585.363281,155.960938 C588.878906,163.773438 590.636719,172.692708 590.636719,182.71875 C590.636719,191.703125 589.041667,199.971354 585.851562,207.523438 C582.661458,215.075521 578.234375,221.553385 572.570312,226.957031 C566.90625,232.360677 560.233073,236.625 552.550781,239.75 C544.86849,242.875 536.60026,244.567708 527.746094,244.828125 L527.746094,244.828125 Z M854.011719,383.5 L854.011719,363.1875 L709.480469,363.1875 L709.480469,247.171875 L834.871094,247.171875 L834.871094,226.859375 L709.480469,226.859375 L709.480469,119.632812 L853.230469,119.632812 L853.230469,99.125 L686.238281,99.125 L686.238281,383.5 L854.011719,383.5 Z M1093.36328,383.5 L1093.36328,362.796875 L1022.07422,362.796875 L1022.07422,120.21875 L1093.36328,120.21875 L1093.36328,99.125 L928.714844,99.125 L928.714844,120.21875 L997.855469,120.21875 L997.855469,362.796875 L928.714844,362.796875 L928.714844,383.5 L1093.36328,383.5 Z" id="REI"></path>
        </g>
    </g>
</svg>